<svg width="21" height="19" viewBox="0 0 21 19" fill="none" xmlns="http://www.w3.org/2000/svg">
<g clip-path="url(#clip0_1_205)">
<path d="M10.5 1.71158C13.3035 1.71158 13.636 1.72108 14.7429 1.767C15.8874 1.8145 17.066 2.05042 17.8999 2.80488C18.7416 3.56646 18.9945 4.62254 19.047 5.66121C19.0977 6.66267 19.1082 6.9635 19.1082 9.5C19.1082 12.0365 19.0977 12.3373 19.047 13.3388C18.9954 14.3688 18.7285 15.4454 17.8999 16.1951C17.0581 16.9567 15.8918 17.1855 14.7429 17.233C13.636 17.2789 13.3035 17.2884 10.5 17.2884C7.6965 17.2884 7.364 17.2789 6.25712 17.233C5.1275 17.1863 3.92175 16.9393 3.10013 16.1951C2.26275 15.4375 2.0055 14.3711 1.953 13.3388C1.90225 12.3373 1.89175 12.0365 1.89175 9.5C1.89175 6.9635 1.90225 6.66267 1.953 5.66121C2.00463 4.63521 2.27413 3.55221 3.10013 2.80488C3.94012 2.04488 5.11175 1.8145 6.25712 1.767C7.364 1.72108 7.6965 1.71158 10.5 1.71158ZM10.5 0C7.64838 0 7.2905 0.0110833 6.1705 0.057C4.54738 0.124292 2.93562 0.532792 1.76225 1.59442C0.5845 2.66 0.137375 4.11508 0.063 5.58283C0.01225 6.59617 0 6.91996 0 9.5C0 12.08 0.01225 12.4038 0.063 13.4172C0.137375 14.8841 0.590625 16.3463 1.76225 17.4056C2.93913 18.4704 4.55 18.8757 6.1705 18.943C7.2905 18.9889 7.64838 19 10.5 19C13.3516 19 13.7095 18.9889 14.8295 18.943C16.4517 18.8757 18.0653 18.4664 19.2378 17.4056C20.4164 16.3392 20.8626 14.8849 20.937 13.4172C20.9877 12.4038 21 12.08 21 9.5C21 6.91996 20.9877 6.59617 20.937 5.58283C20.8626 4.11429 20.4102 2.65525 19.2378 1.59442C18.0626 0.531208 16.4474 0.1235 14.8295 0.057C13.7095 0.0110833 13.3516 0 10.5 0Z" fill="#475940"/>
<path d="M10.5 4.62173C7.52237 4.62173 5.10825 6.80594 5.10825 9.49999C5.10825 12.194 7.52237 14.3782 10.5 14.3782C13.4776 14.3782 15.8917 12.194 15.8917 9.49999C15.8917 6.80594 13.4776 4.62173 10.5 4.62173ZM10.5 12.6667C8.56712 12.6667 7 11.2488 7 9.49999C7 7.75119 8.56712 6.33332 10.5 6.33332C12.4329 6.33332 14 7.75119 14 9.49999C14 11.2488 12.4329 12.6667 10.5 12.6667Z" fill="#475940"/>
<path d="M16.1052 5.56857C16.8011 5.56857 17.3652 5.05818 17.3652 4.42857C17.3652 3.79897 16.8011 3.28857 16.1052 3.28857C15.4094 3.28857 14.8452 3.79897 14.8452 4.42857C14.8452 5.05818 15.4094 5.56857 16.1052 5.56857Z" fill="#475940"/>
</g>
<defs>
<clipPath id="clip0_1_205">
<rect width="21" height="19" fill="white"/>
</clipPath>
</defs>
</svg>
