<svg width="21" height="20" viewBox="0 0 21 20" fill="none" xmlns="http://www.w3.org/2000/svg">
<g clip-path="url(#clip0_1_212)">
<path d="M19.6568 8.22167C17.7852 8.22167 16.0501 7.65167 14.6343 6.68333V13.6708C14.6343 17.1608 11.6532 19.9992 7.9896 19.9992C6.57385 19.9992 5.26047 19.5742 4.1816 18.8525C2.46835 17.7067 1.34485 15.8117 1.34485 13.6708C1.34485 10.1808 4.32597 7.34167 7.99047 7.34167C8.29497 7.34167 8.59247 7.36583 8.8856 7.40333V8.2175V10.9133C8.6021 10.8292 8.30285 10.78 7.99047 10.78C6.31747 10.78 4.95597 12.0767 4.95597 13.6708C4.95597 14.7808 5.61747 15.745 6.58347 16.2292C7.00435 16.44 7.48297 16.5608 7.99135 16.5608C9.62585 16.5608 10.9593 15.3225 11.0206 13.7792L11.0232 0H14.6335C14.6335 0.298333 14.6641 0.589167 14.7183 0.8725C14.973 2.1825 15.7893 3.30667 16.9207 4.00917C17.7082 4.49833 18.648 4.78417 19.656 4.78417L19.6568 8.22167Z" fill="#475940"/>
</g>
<defs>
<clipPath id="clip0_1_212">
<rect width="21" height="20" fill="white"/>
</clipPath>
</defs>
</svg>
