<svg width="21" height="19" viewBox="0 0 21 19" fill="none" xmlns="http://www.w3.org/2000/svg">
<g clip-path="url(#clip0_1_210)">
<path d="M18.8501 5.624C18.8624 5.79104 18.8624 5.95887 18.8624 6.12749C18.8624 11.2789 14.5276 17.2187 6.60362 17.2187V17.2156C4.263 17.2187 1.9705 16.6123 0 15.4684C0.340375 15.5056 0.6825 15.5238 1.0255 15.5246C2.96625 15.5262 4.851 14.9372 6.37613 13.8526C4.5325 13.8209 2.9155 12.7332 2.35113 11.1451C2.99688 11.2575 3.66187 11.2345 4.29625 11.0786C2.2855 10.7112 0.84 9.11287 0.84 7.2572C0.84 7.24058 0.84 7.22395 0.84 7.20812C1.43937 7.51054 2.10962 7.67758 2.79562 7.69579C0.902125 6.55183 0.317625 4.27341 1.46125 2.49216C3.64875 4.92733 6.87662 6.40775 10.3407 6.56529C9.99337 5.21154 10.4685 3.79287 11.5868 2.8405C13.3219 1.36404 16.051 1.44004 17.6829 3.00991C18.648 2.83812 19.5729 2.5175 20.419 2.06387C20.097 2.96637 19.4241 3.7327 18.5246 4.22037C19.3795 4.12774 20.2134 3.92112 21 3.60604C20.4216 4.38899 19.6936 5.0722 18.8501 5.624Z" fill="#475940"/>
</g>
<defs>
<clipPath id="clip0_1_210">
<rect width="21" height="19" fill="white"/>
</clipPath>
</defs>
</svg>
